<?xml version="1.0" encoding="UTF-8"?>
<svg width="301px" height="47px" viewBox="0 0 301 47" version="1.1" xmlns="http://www.w3.org/2000/svg" xmlns:xlink="http://www.w3.org/1999/xlink">
    <!-- Generator: Sketch 46.1 (44463) - http://www.bohemiancoding.com/sketch -->
    <title>最终SVG</title>
    <desc>Created with Sketch.</desc>
    <defs>
        <rect id="path-1" x="143" y="0" width="14" height="14" rx="2"></rect>
        <rect id="path-2" x="157" y="0" width="14" height="14" rx="2"></rect>
        <filter x="-38.1%" y="-133.3%" width="176.2%" height="366.6%" filterUnits="objectBoundingBox" id="filter-3">
            <feGaussianBlur stdDeviation="1.77734375" in="SourceGraphic"></feGaussianBlur>
        </filter>
        <rect id="path-4" x="0" y="0" width="16" height="16" rx="8"></rect>
    </defs>
    <g id="6.0" stroke="none" stroke-width="1" fill="none" fill-rule="evenodd">
        <g id="最终SVG">
            <g id="地铁-" transform="translate(54.000000, 0.000000)" fill="#00A85D">
                <path d="M0,3.78948574 L0,12.7894753 C0,14.6179082 1.57001388,16.1052675 3.50000618,16.1052675 L12.4999938,16.1052675 C14.4300081,16.1052675 16,14.6178874 16,12.7894753 L16,3.78948574 C16,0.473693523 12.4199913,1.47908021e-15 7.99998901,1.47908021e-15 C3.58000871,0 0,0.473672707 0,3.78948574 Z M3.5,14 C2.67000894,14 2,13.3299911 2,12.5 C2,11.6700089 2.67000894,11 3.5,11 C4.32999106,11 5,11.6700089 5,12.5 C5,13.3299911 4.32999106,14 3.5,14 L3.5,14 Z M7.5,9 L2,9 L2,4 L7.5,4 L7.5,9 Z M12.5,14 C11.6700089,14 11,13.3299911 11,12.5 C11,11.6700089 11.6700089,11 12.5,11 C13.3299911,11 14,11.6700089 14,12.5 C14,13.3299911 13.3299911,14 12.5,14 L12.5,14 Z M14.5,9 L9,9 L9,4 L14.5,4 L14.5,9 Z" id="Shape" fill-rule="nonzero"></path>
                <rect id="Rectangle-11" x="2" y="18" width="12" height="2" rx="1"></rect>
            </g>
            <g id="地铁--copy" transform="translate(70.000000, 0.000000)" fill="#767676">
                <path d="M0,3.78948574 L0,12.7894753 C0,14.6179082 1.57001388,16.1052675 3.50000618,16.1052675 L12.4999938,16.1052675 C14.4300081,16.1052675 16,14.6178874 16,12.7894753 L16,3.78948574 C16,0.473693523 12.4199913,1.47908021e-15 7.99998901,1.47908021e-15 C3.58000871,0 0,0.473672707 0,3.78948574 Z M3.5,14 C2.67000894,14 2,13.3299911 2,12.5 C2,11.6700089 2.67000894,11 3.5,11 C4.32999106,11 5,11.6700089 5,12.5 C5,13.3299911 4.32999106,14 3.5,14 L3.5,14 Z M7.5,9 L2,9 L2,4 L7.5,4 L7.5,9 Z M12.5,14 C11.6700089,14 11,13.3299911 11,12.5 C11,11.6700089 11.6700089,11 12.5,11 C13.3299911,11 14,11.6700089 14,12.5 C14,13.3299911 13.3299911,14 12.5,14 L12.5,14 Z M14.5,9 L9,9 L9,4 L14.5,4 L14.5,9 Z" id="Shape" fill-rule="nonzero"></path>
                <rect id="Rectangle-11" x="2" y="18" width="12" height="2" rx="1"></rect>
            </g>
            <g id="Group-3-Copy" transform="translate(86.000000, 0.000000)">
                <g id="Page-1">
                    <path d="M28.2054417,4.91870233 L28.0543252,4.76844957 C25.078932,1.82162058 20.9916311,0 16.479068,0 C11.9719515,0 7.88737379,1.81771026 4.91262136,4.75977187 L4.74489806,4.92738003 C1.81243689,7.91283013 0,12.0082759 0,16.5308573 C0,21.0575097 1.81532039,25.1569193 4.75349515,28.1424766 L4.90391748,28.2927829 L16.4797087,39.9061699 L28.0636165,28.2867835 L28.1973786,28.1512078 C31.1402524,25.1645257 32.9587767,21.0623307 32.9587767,16.5310715 C32.9589903,12.0047941 31.1436699,7.90543802 28.2054417,4.91870233 L28.2054417,4.91870233 Z" id="Fill-1" fill="#F04134"></path>
                    <g id="地铁-" transform="translate(9.000000, 7.000000)" fill="#FFFFFF">
                        <path d="M0,3.41053716 L0,11.5105278 C0,13.1561174 1.4130125,14.4947408 3.15000556,14.4947408 L11.2499944,14.4947408 C12.9870073,14.4947408 14.4,13.1560986 14.4,11.5105278 L14.4,3.41053716 C14.4,0.426324171 11.1779922,1.33117219e-15 7.19999011,1.33117219e-15 C3.22200784,0 0,0.426305436 0,3.41053716 Z M3.15,12.6 C2.40300804,12.6 1.8,11.996992 1.8,11.25 C1.8,10.503008 2.40300804,9.9 3.15,9.9 C3.89699196,9.9 4.5,10.503008 4.5,11.25 C4.5,11.996992 3.89699196,12.6 3.15,12.6 L3.15,12.6 Z M6.75,8.1 L1.8,8.1 L1.8,3.6 L6.75,3.6 L6.75,8.1 Z M11.25,12.6 C10.503008,12.6 9.9,11.996992 9.9,11.25 C9.9,10.503008 10.503008,9.9 11.25,9.9 C11.996992,9.9 12.6,10.503008 12.6,11.25 C12.6,11.996992 11.996992,12.6 11.25,12.6 L11.25,12.6 Z M13.05,8.1 L8.1,8.1 L8.1,3.6 L13.05,3.6 L13.05,8.1 Z" id="Shape" fill-rule="nonzero"></path>
                        <rect id="Rectangle-11" x="1.8" y="16.2" width="10.8" height="1.8" rx="0.9"></rect>
                    </g>
                </g>
            </g>
            <path d="M1.13995379,5.65219728 C1.13995379,3.15249178 3.18817192,1.12680486 5.71530033,1.12680486 C8.24234869,1.12680486 10.290887,3.15257184 10.290887,5.65219728 C10.290887,8.15198284 8.24234869,10.1775897 5.71530033,10.1775897 C3.18817192,10.1775897 1.13995379,8.15190279 1.13995379,5.65219728 L1.13995379,5.65219728 Z M14,13.2036712 L10.0641612,9.31057041 C10.9147033,8.32394568 11.4308408,7.04791422 11.4308408,5.65219728 C11.4308408,2.53557112 8.86672538,0 5.71530033,0 C2.56387529,0 0,2.53557112 0,5.65219728 C0,8.7694639 2.56387529,11.3043946 5.71530033,11.3043946 C7.04659408,11.3043946 8.26972872,10.8498299 9.24211995,10.0909678 L13.1938904,14 L14,13.2036712 Z" id="Fill-1" fill="#767676"></path>
            <path d="M288.139954,5.65219728 C288.139954,3.15249178 290.188172,1.12680486 292.7153,1.12680486 C295.242349,1.12680486 297.290887,3.15257184 297.290887,5.65219728 C297.290887,8.15198284 295.242349,10.1775897 292.7153,10.1775897 C290.188172,10.1775897 288.139954,8.15190279 288.139954,5.65219728 L288.139954,5.65219728 Z M301,13.2036712 L297.064161,9.31057041 C297.914703,8.32394568 298.430841,7.04791422 298.430841,5.65219728 C298.430841,2.53557112 295.866725,0 292.7153,0 C289.563875,0 287,2.53557112 287,5.65219728 C287,8.7694639 289.563875,11.3043946 292.7153,11.3043946 C294.046594,11.3043946 295.269729,10.8498299 296.24212,10.0909678 L300.19389,14 L301,13.2036712 Z" id="Fill-1-Copy" fill="#00A75B"></path>
            <polyline id="Path-8-Copy" stroke="#9C9FA1" stroke-linecap="round" points="120 1 125 6 130 1"></polyline>
            <polyline id="Path-8-Copy-2" stroke="#9C9FA1" stroke-linecap="round" transform="translate(137.000000, 3.500000) scale(1, -1) translate(-137.000000, -3.500000) " points="132 1 137 6 142 1"></polyline>
            <g id="Rectangle-4-Copy-29">
                <use fill="#FFFFFF" fill-rule="evenodd" xlink:href="#path-1"></use>
                <rect stroke="#DDDDDD" stroke-width="1" x="143.5" y="0.5" width="13" height="13" rx="2"></rect>
            </g>
            <g id="Rectangle-4-Copy-27">
                <use fill="#FFFFFF" fill-rule="evenodd" xlink:href="#path-2"></use>
                <rect stroke="#00A75B" stroke-width="1" x="157.5" y="0.5" width="13" height="13" rx="2"></rect>
            </g>
            <polyline id="Path-2" stroke="#00AE66" stroke-width="2" opacity="0.900000036" points="160 6.5 162.666667 9 168 4"></polyline>
            <g id="重画" transform="translate(190.000000, 0.000000)" fill="#00A85D">
                <path d="M14.7446436,1.24110424 C13.4239396,-0.0802665158 12.4032079,-0.244106643 11.8746633,0.284437955 L10.4396453,1.71943738 L14.2662919,5.54608396 L15.701921,4.11106603 C16.2298359,3.58255846 16.0659958,2.5617897 14.7446436,1.24110424 Z" id="Shape" fill-rule="nonzero"></path>
                <path d="M1.35003772,10.8090635 C1.08577468,11.0726783 0.113235584,14.9158274 0.113235584,14.9158274 C0.0554303529,15.0734629 -0.0690888688,15.6792601 0.113235584,15.8724937 C0.240644145,16.0075331 0.57339924,16.065042 1.06990186,15.8724937 C1.06990186,15.8724937 4.913051,14.8999916 5.17738813,14.6356916 L13.3096812,6.50275024 L9.48297904,2.67612217 L1.35003772,10.8090635 Z M1.12539191,14.8603559 L2.09528246,11.5543268 L4.43212487,13.8904653 L1.12539191,14.8603559 Z" id="Shape" fill-rule="nonzero"></path>
                <rect id="Rectangle-11" x="0" y="17" width="16" height="2" rx="1"></rect>
            </g>
            <g id="重画-copy" transform="translate(206.000000, 0.000000)" fill="#767676">
                <path d="M14.7446436,1.24110424 C13.4239396,-0.0802665158 12.4032079,-0.244106643 11.8746633,0.284437955 L10.4396453,1.71943738 L14.2662919,5.54608396 L15.701921,4.11106603 C16.2298359,3.58255846 16.0659958,2.5617897 14.7446436,1.24110424 Z" id="Shape" fill-rule="nonzero"></path>
                <path d="M1.35003772,10.8090635 C1.08577468,11.0726783 0.113235584,14.9158274 0.113235584,14.9158274 C0.0554303529,15.0734629 -0.0690888688,15.6792601 0.113235584,15.8724937 C0.240644145,16.0075331 0.57339924,16.065042 1.06990186,15.8724937 C1.06990186,15.8724937 4.913051,14.8999916 5.17738813,14.6356916 L13.3096812,6.50275024 L9.48297904,2.67612217 L1.35003772,10.8090635 Z M1.12539191,14.8603559 L2.09528246,11.5543268 L4.43212487,13.8904653 L1.12539191,14.8603559 Z" id="Shape" fill-rule="nonzero"></path>
                <rect id="Rectangle-11" x="0" y="17" width="16" height="2" rx="1"></rect>
            </g>
            <g id="Group-2" transform="translate(222.000000, 0.000000)">
                <ellipse id="Oval-2" fill="#333333" filter="url(#filter-3)" cx="17" cy="41" rx="7" ry="2"></ellipse>
                <g id="Group-3">
                    <g id="Page-1" fill="#F95145">
                        <path d="M28.2054417,4.91870233 L28.0543252,4.76844957 C25.078932,1.82162058 20.9916311,0 16.479068,0 C11.9719515,0 7.88737379,1.81771026 4.91262136,4.75977187 L4.74489806,4.92738003 C1.81243689,7.91283013 0,12.0082759 0,16.5308573 C0,21.0575097 1.81532039,25.1569193 4.75349515,28.1424766 L4.90391748,28.2927829 L16.4797087,39.9061699 L28.0636165,28.2867835 L28.1973786,28.1512078 C31.1402524,25.1645257 32.9587767,21.0623307 32.9587767,16.5310715 C32.9589903,12.0047941 31.1436699,7.90543802 28.2054417,4.91870233 L28.2054417,4.91870233 Z" id="Fill-1"></path>
                    </g>
                    <g id="Group-Copy" transform="translate(9.000000, 9.000000)" fill="#FFFFFF">
                        <path d="M8.90951523,0.523743273 C8.68882326,0.367061269 8.17169457,-4.2538098e-05 7.51790551,-4.2538098e-05 C6.86077262,-4.2538098e-05 6.34960465,0.364508983 6.13152958,0.520056638 L6.09431143,0.546288466 L0.842918308,4.22867004 C0.602744962,4.39712091 0.044327393,4.88035374 0.044327393,5.72728732 L0.044327393,13.0987148 C0.044327393,14.1082857 0.886533322,14.9295546 1.921663,14.9295546 L3.86311268,14.9282785 L13.6793986,14.9282785 C14.3344961,14.8997779 14.8583124,14.3710293 14.8583124,13.725301 C14.8583124,13.0611394 14.3044018,12.5209056 13.6235714,12.5209056 L2.95911881,12.5209056 C2.91666686,12.5209056 2.87683182,12.5173607 2.84004982,12.510271 C2.68245423,12.474539 2.55873298,12.3525965 2.52398635,12.1981832 C2.51889793,12.171526 2.51584488,12.1434508 2.51453643,12.1139577 C2.51424566,12.1048829 2.5139549,6.22597565 2.5139549,6.22597565 C2.5139549,6.01612102 2.61528711,5.90495478 2.7903287,5.78386299 C2.91884761,5.69495836 4.20781667,4.80761358 6.96937401,2.90701125 L7.21870651,2.73515733 C7.25098162,2.71204496 7.25592465,2.70807474 7.26493842,2.70197761 C7.33050633,2.66199179 7.42384246,2.63235692 7.51877781,2.63235692 C7.61981926,2.63235692 7.71344615,2.66340973 7.79020858,2.71615697 C7.96336019,2.83625621 10.2897851,4.44093516 11.543426,5.30573474 L12.3186101,5.84058046 C12.4113647,5.9046712 12.5218561,6.01994945 12.5218561,6.20499019 L12.5218561,7.02923678 C12.5218561,7.69325653 13.0757668,8.23349041 13.7567426,8.23349041 C14.4375729,8.23349041 14.9914836,7.69325653 14.9914836,7.02923678 L14.9914836,5.72728732 C14.9914836,5.13841821 14.7110391,4.59960227 14.2212425,4.24852115 L8.90951523,0.523743273 Z" id="Fill-7"></path>
                        <path d="M13.7563209,9.16686141 C13.0751998,9.16686141 12.5211437,9.70723708 12.5211437,10.3715404 C12.5211437,11.0358438 13.0751998,11.5763612 13.7563209,11.5763612 C14.4374421,11.5763612 14.9914982,11.0358438 14.9914982,10.3715404 C14.9914982,9.70723708 14.4374421,9.16686141 13.7563209,9.16686141" id="Fill-10"></path>
                    </g>
                </g>
            </g>
            <g id="展开" transform="translate(172.000000, 1.000000)" stroke-linecap="round" stroke-width="2" stroke="#394043">
                <polyline id="Path-7" transform="translate(3.500000, 7.000000) scale(-1, -1) rotate(-270.000000) translate(-3.500000, -7.000000) " points="-3.5 3.5 3.3266024 10.5 10.5 3.89075309"></polyline>
            </g>
            <g id="展开-copy" transform="translate(185.500000, 8.000000) scale(-1, 1) translate(-185.500000, -8.000000) translate(182.000000, 1.000000)" stroke-linecap="round" stroke-width="2" stroke="#394043">
                <polyline id="Path-7" transform="translate(3.500000, 7.000000) scale(-1, -1) rotate(-270.000000) translate(-3.500000, -7.000000) " points="-3.5 3.5 3.3266024 10.5 10.5 3.89075309"></polyline>
            </g>
            <g id="Group-23-Copy-5" transform="translate(255.000000, 0.000000)">
                <g id="Rectangle-4-Copy-18">
                    <use fill="#FFFFFF" fill-rule="evenodd" xlink:href="#path-4"></use>
                    <rect stroke="#666666" stroke-width="1.5" x="0.75" y="0.75" width="14.5" height="14.5" rx="7.25"></rect>
                </g>
                <path d="M5.4407261,9.30605952 L4.43713132,9.71671542 L7.27933393,11.5535797 L7.95185437,8.27854358 L6.8643805,8.72352154 C6.75449346,8.46300218 6.00161931,6.51227728 7.1472777,4.44444444 C4.62252847,6.35290096 5.42754654,8.77609282 5.4407261,9.30605952 Z M10.5592739,6.69394048 L11.5628687,6.28328458 L8.72066607,4.4464203 L8.04814563,7.72145642 L9.1356195,7.27647846 C9.24550654,7.53699782 9.99838069,9.48772272 8.8527223,11.5555556 C11.3774715,9.64709904 10.5724535,7.22390718 10.5592739,6.69394048 Z" id="Combined-Shape" fill="#666666"></path>
            </g>
            <g id="画圈找房-copy-2" transform="translate(35.000000, 0.000000)" fill-rule="nonzero" fill="#767676">
                <path d="M16.1677507,2.18538908 C14.7053833,0.722283387 13.5751642,0.540869184 12.9899261,1.12610736 L11.400983,2.71502994 L15.6380893,6.95213629 L17.2277092,5.36319321 C17.8122501,4.77799604 17.6308359,3.64773598 16.1677507,2.18538908 Z" id="Shape"></path>
                <path d="M1.49484758,12.9684822 C1.20223874,13.2603732 0.125381636,17.5157523 0.125381636,17.5157523 C0.0613760103,17.6902963 -0.0764995873,18.3610735 0.125381636,18.575034 C0.266456494,18.7245582 0.634904088,18.7882357 1.18466335,18.575034 C1.18466335,18.575034 5.44004238,17.4982179 5.73273324,17.205568 L14.5788691,8.01141801 L10.3417013,3.77433216 L1.49484758,12.9684822 Z M1.24610546,17.4543307 L2.32002993,13.7936851 L4.90753039,16.3804062 L1.24610546,17.4543307 Z" id="Shape"></path>
            </g>
            <g id="画圈找房-copy-3" transform="translate(15.000000, 0.000000)" fill-rule="nonzero" fill="#00A85D">
                <path d="M16.1677507,2.18538908 C14.7053833,0.722283387 13.5751642,0.540869184 12.9899261,1.12610736 L11.400983,2.71502994 L15.6380893,6.95213629 L17.2277092,5.36319321 C17.8122501,4.77799604 17.6308359,3.64773598 16.1677507,2.18538908 Z" id="Shape"></path>
                <path d="M1.49484758,12.9684822 C1.20223874,13.2603732 0.125381636,17.5157523 0.125381636,17.5157523 C0.0613760103,17.6902963 -0.0764995873,18.3610735 0.125381636,18.575034 C0.266456494,18.7245582 0.634904088,18.7882357 1.18466335,18.575034 C1.18466335,18.575034 5.44004238,17.4982179 5.73273324,17.205568 L14.5788691,8.01141801 L10.3417013,3.77433216 L1.49484758,12.9684822 Z M1.24610546,17.4543307 L2.32002993,13.7936851 L4.90753039,16.3804062 L1.24610546,17.4543307 Z" id="Shape"></path>
            </g>
            <g id="Group" transform="translate(271.000000, 0.000000)" fill="#394043">
                <rect id="Rectangle-6-Copy" x="3" y="0" width="2" height="8"></rect>
                <rect id="Rectangle-15" x="0" y="3" width="8" height="2"></rect>
            </g>
            <rect id="Rectangle-15-Copy" fill="#394043" x="279" y="3" width="8" height="2"></rect>
        </g>
    </g>
</svg>